<?xml version="1.0" encoding="UTF-8" standalone="no"?><!DOCTYPE svg PUBLIC "-//W3C//DTD SVG 1.1//EN" "http://www.w3.org/Graphics/SVG/1.1/DTD/svg11.dtd"><svg width="100%" height="100%" viewBox="0 0 32 32" version="1.1" xmlns="http://www.w3.org/2000/svg" xmlns:xlink="http://www.w3.org/1999/xlink" xml:space="preserve" xmlns:serif="http://www.serif.com/" style="fill-rule:evenodd;clip-rule:evenodd;stroke-linejoin:round;stroke-miterlimit:2;"><path d="M5.688,5c-0,0 -0.688,1.207 -0.688,3.25c0,1.355 0.309,2.07 0.531,2.438c-1.562,1.624 -2.531,3.828 -2.531,6.656c0,7.242 4.59,9.656 13,9.656c8.41,0 13,-2.414 13,-9.656c0,-2.926 -0.914,-5.125 -2.406,-6.719c0.371,-1.109 0.789,-3.203 -0.25,-5.625c-3.102,0 -5.688,2.383 -5.782,2.469c-1.449,-0.317 -2.988,-0.469 -4.562,-0.469c-1.605,0 -3.18,0.195 -4.656,0.563c-2.078,-2.059 -4.586,-2.563 -5.657,-2.563Zm15,10.438c0.844,-0.008 1.625,0.062 2.313,0.281c1.832,0.582 3,2.265 3,4.156c0,5.234 -2.809,6.125 -10,6.125c-5.344,0 -9.688,-0.941 -9.688,-5.938c0.001,-1.906 1.036,-2.984 1.782,-3.656c1.64,-1.476 4.23,-0.75 7.906,-0.75c1.672,0 3.277,-0.203 4.688,-0.219Zm-10.188,2.563c-0.828,-0 -1.5,0.895 -1.5,2c0,1.105 0.672,2 1.5,2c0.828,-0 1.5,-0.895 1.5,-2c0,-1.105 -0.672,-2 -1.5,-2Zm11,-0c-0.828,-0 -1.5,0.895 -1.5,2c0,1.105 0.672,2 1.5,2c0.828,-0 1.5,-0.895 1.5,-2c0,-1.105 -0.672,-2 -1.5,-2Zm-11.156,0.844c0.234,-0 0.406,0.199 0.406,0.437c0,0.239 -0.172,0.438 -0.406,0.438c-0.235,-0 -0.438,-0.199 -0.438,-0.438c0,-0.238 0.203,-0.437 0.438,-0.437Zm11,-0c0.234,-0 0.406,0.199 0.406,0.437c0,0.239 -0.172,0.438 -0.406,0.438c-0.235,-0 -0.438,-0.199 -0.438,-0.438c0,-0.238 0.203,-0.437 0.438,-0.437Z" style="fill:#0f3443;fill-rule:nonzero;"/></svg>